0
SECTION
2
HEADER
9
$INSUNITS
70
4
9
$ACADVER
1
AC1014
9
$HANDSEED
5
FFFF
0
ENDSEC
0
SECTION
2
TABLES
0
TABLE
2
VPORT
5
8
100
AcDbSymbolTable
0
ENDTAB
0
TABLE
2
LTYPE
5
5
100
AcDbSymbolTable
0
LTYPE
5
14
100
AcDbSymbolTableRecord
100
AcDbLinetypeTableRecord
2
BYBLOCK
70
0
0
LTYPE
5
15
100
AcDbSymbolTableRecord
100
AcDbLinetypeTableRecord
2
BYLAYER
70
0
0
ENDTAB
0
TABLE
2
LAYER
5
2
100
AcDbSymbolTable
70
2
0
LAYER
5
50
100
AcDbSymbolTableRecord
100
AcDbLayerTableRecord
2
0
70
0
6
CONTINUOUS
0
ENDTAB
0
TABLE
2
STYLE
5
3
100
AcDbSymbolTable
70
1
0
STYLE
5
11
100
AcDbSymbolTableRecord
100
AcDbTextStyleTableRecord
2
STANDARD
70
0
0
ENDTAB
0
TABLE
2
VIEW
5
6
100
AcDbSymbolTable
70
0
0
ENDTAB
0
TABLE
2
UCS
5
7
100
AcDbSymbolTable
70
0
0
ENDTAB
0
TABLE
2
APPID
5
9
100
AcDbSymbolTable
70
2
0
APPID
5
12
100
AcDbSymbolTableRecord
100
AcDbRegAppTableRecord
2
ACAD
70
0
0
ENDTAB
0
TABLE
2
DIMSTYLE
5
A
100
AcDbSymbolTable
70
1
0
ENDTAB
0
TABLE
2
BLOCK_RECORD
5
1
100
AcDbSymbolTable
70
1
0
BLOCK_RECORD
5
1F
100
AcDbSymbolTableRecord
100
AcDbBlockTableRecord
2
*MODEL_SPACE
0
BLOCK_RECORD
5
1B
100
AcDbSymbolTableRecord
100
AcDbBlockTableRecord
2
*PAPER_SPACE
0
ENDTAB
0
ENDSEC
0
SECTION
2
BLOCKS
0
BLOCK
5
20
100
AcDbEntity
100
AcDbBlockBegin
2
*MODEL_SPACE
0
ENDBLK
5
21
100
AcDbEntity
100
AcDbBlockEnd
0
BLOCK
5
1C
100
AcDbEntity
100
AcDbBlockBegin
2
*PAPER_SPACE
0
ENDBLK
5
1D
100
AcDbEntity
100
AcDbBlockEnd
0
ENDSEC
0
SECTION
2
ENTITIES
0
LWPOLYLINE
5
100
100
AcDbEntity
8
0
100
AcDbPolyline
90
20
70
1
43
0.0
10
-12.99999999999998
20
-71.291375125453186
10
-12.999999999999975
20
-23.011375125453178
10
-9.9999999999999787
20
-23.011375125453178
10
-9.9999999999999787
20
-17.011375125453185
10
2.1435133112786356e-14
20
-17.011375125453185
10
1.7763568394002505e-14
20
-14.011375125453176
10
157.46000000000004
20
-14.011375125453185
10
157.46000000000004
20
-17.011375125453192
10
167.46000000000004
20
-17.011375125453199
10
167.46000000000004
20
-23.011375125453199
10
170.45999999999998
20
-23.011375125453199
10
170.45999999999998
20
-71.291375125453243
10
167.46000000000004
20
-71.291375125453243
10
167.46000000000004
20
-77.29137521486021
10
157.46000000000004
20
-77.29137521486021
10
157.46000000000004
20
-80.291375125453243
10
1.6166014637915375e-14
20
-80.291375125453243
10
1.6653345369377348e-14
20
-77.29137521486021
10
-9.999999999999984
20
-77.291375214860196
10
-9.999999999999984
20
-71.291375125453186
0
LWPOLYLINE
5
101
100
AcDbEntity
8
0
100
AcDbPolyline
90
4
70
1
43
0.0
10
7.0000001043081452
20
-67.291375125453229
10
3.9999999999999529
20
-67.29137512545347
10
4.0000000000000231
20
-77.291375125453229
10
7.0000000933526554
20
-77.291375125453229
0
LWPOLYLINE
5
102
100
AcDbEntity
8
0
100
AcDbPolyline
90
4
70
1
43
0.0
10
153.46000000000004
20
-67.011375125453227
10
150.45999989569191
20
-67.011375125453227
10
150.45999989569191
20
-77.011375721499689
10
153.45999998533611
20
-77.011375721499689
0
LWPOLYLINE
5
103
100
AcDbEntity
8
0
100
AcDbPolyline
90
4
70
1
43
0.0
10
-9.9999980163576456
20
-41.011375125454705
10
2.9999999999999556
20
-41.011375125453391
10
2.9999999999999547
20
-38.011375125453384
10
-9.9999980163576456
20
-38.011375125454727
0
LWPOLYLINE
5
104
100
AcDbEntity
8
0
100
AcDbPolyline
90
4
70
1
43
0.0
10
167.45998184204103
20
-38.011375125453213
10
154.46000000000004
20
-38.011375125453213
10
154.46000000000004
20
-41.011375125453213
10
167.45998184204103
20
-41.011375125453213
0
CIRCLE
5
105
100
AcDbEntity
8
0
100
AcDbCircle
10
140.46000000000004
20
-61.291375125453236
30
0
40
3.9999999999999858
210
1.2325951644078309e-32
220
-1.0263416486753993e-48
230
1
0
CIRCLE
5
106
100
AcDbEntity
8
0
100
AcDbCircle
10
90.000000000000014
20
-41.291375125453214
30
0
40
1.2999999999999901
210
1.2325951644078309e-32
220
-1.0263416486753993e-48
230
1
0
CIRCLE
5
107
100
AcDbEntity
8
0
100
AcDbCircle
10
129.5
20
-68.791375125453243
30
0
40
1.3000000000000078
210
1.2325951644078309e-32
220
-1.0263416486753993e-48
230
1
0
CIRCLE
5
108
100
AcDbEntity
8
0
100
AcDbCircle
10
90.000000000000014
20
-68.791375125453243
30
0
40
1.3000000000000078
210
1.2325951644078309e-32
220
-1.0263416486753993e-48
230
1
0
CIRCLE
5
109
100
AcDbEntity
8
0
100
AcDbCircle
10
129.5
20
-41.291375125453214
30
0
40
1.2999999999999901
210
1.2325951644078309e-32
220
-1.0263416486753993e-48
230
1
0
ENDSEC
0
SECTION
2
OBJECTS
0
DICTIONARY
5
C
100
AcDbDictionary
3
ACAD_GROUP
350
D
3
ACAD_MLINESTYLE
350
17
0
DICTIONARY
5
D
100
AcDbDictionary
0
DICTIONARY
5
1A
330
C
100
AcDbDictionary
0
DICTIONARY
5
17
100
AcDbDictionary
0
ENDSEC
0
EOF
