0
SECTION
2
HEADER
9
$INSUNITS
70
4
9
$ACADVER
1
AC1014
9
$HANDSEED
5
FFFF
0
ENDSEC
0
SECTION
2
TABLES
0
TABLE
2
VPORT
5
8
100
AcDbSymbolTable
0
ENDTAB
0
TABLE
2
LTYPE
5
5
100
AcDbSymbolTable
0
LTYPE
5
14
100
AcDbSymbolTableRecord
100
AcDbLinetypeTableRecord
2
BYBLOCK
70
0
0
LTYPE
5
15
100
AcDbSymbolTableRecord
100
AcDbLinetypeTableRecord
2
BYLAYER
70
0
0
ENDTAB
0
TABLE
2
LAYER
5
2
100
AcDbSymbolTable
70
2
0
LAYER
5
50
100
AcDbSymbolTableRecord
100
AcDbLayerTableRecord
2
0
70
0
6
CONTINUOUS
0
ENDTAB
0
TABLE
2
STYLE
5
3
100
AcDbSymbolTable
70
1
0
STYLE
5
11
100
AcDbSymbolTableRecord
100
AcDbTextStyleTableRecord
2
STANDARD
70
0
0
ENDTAB
0
TABLE
2
VIEW
5
6
100
AcDbSymbolTable
70
0
0
ENDTAB
0
TABLE
2
UCS
5
7
100
AcDbSymbolTable
70
0
0
ENDTAB
0
TABLE
2
APPID
5
9
100
AcDbSymbolTable
70
2
0
APPID
5
12
100
AcDbSymbolTableRecord
100
AcDbRegAppTableRecord
2
ACAD
70
0
0
ENDTAB
0
TABLE
2
DIMSTYLE
5
A
100
AcDbSymbolTable
70
1
0
ENDTAB
0
TABLE
2
BLOCK_RECORD
5
1
100
AcDbSymbolTable
70
1
0
BLOCK_RECORD
5
1F
100
AcDbSymbolTableRecord
100
AcDbBlockTableRecord
2
*MODEL_SPACE
0
BLOCK_RECORD
5
1B
100
AcDbSymbolTableRecord
100
AcDbBlockTableRecord
2
*PAPER_SPACE
0
ENDTAB
0
ENDSEC
0
SECTION
2
BLOCKS
0
BLOCK
5
20
100
AcDbEntity
100
AcDbBlockBegin
2
*MODEL_SPACE
0
ENDBLK
5
21
100
AcDbEntity
100
AcDbBlockEnd
0
BLOCK
5
1C
100
AcDbEntity
100
AcDbBlockBegin
2
*PAPER_SPACE
0
ENDBLK
5
1D
100
AcDbEntity
100
AcDbBlockEnd
0
ENDSEC
0
SECTION
2
ENTITIES
0
LWPOLYLINE
5
100
100
AcDbEntity
8
0
100
AcDbPolyline
90
20
70
1
43
0.0
10
-12.999999999999968
20
-71.291375125453229
10
-12.999999999999963
20
-23.011375125453178
10
-10.000000149011591
20
-23.011375125453178
10
-9.9999999999999787
20
-17.01137512545321
10
2.1435133112786356e-14
20
-17.01137512545321
10
1.7763568394002505e-14
20
-14.011375125453176
10
157.46000000000004
20
-14.011375125453185
10
157.46000000000004
20
-17.011375125453192
10
167.46000000000004
20
-17.011375125453199
10
167.46000000000004
20
-23.011375125453199
10
170.45999999999998
20
-23.011375125453199
10
170.45999999999998
20
-71.291375125453243
10
167.46000000000004
20
-71.291375125453243
10
167.46000000000004
20
-77.291375125453243
10
157.46000000000004
20
-77.291375125453243
10
157.46000000000004
20
-80.291375125453243
10
1.6166014637915375e-14
20
-80.291375125453243
10
1.6653345369377348e-14
20
-77.291375125453229
10
-9.999999999999984
20
-77.291375125453229
10
-10.000000149011594
20
-71.291375125453229
0
LWPOLYLINE
5
101
100
AcDbEntity
8
0
100
AcDbPolyline
90
16
70
1
43
0.0
10
133.78010122060491
20
-58.193074963850094
42
-1.0015978180531646
10
133.78000000000003
20
-58.129675125453218
10
133.78000000000003
20
-36.193075125453191
42
-1.0015978180534606
10
133.78010122060491
20
-36.129675287056322
42
-0.41048817713603974
10
138.74825036163489
20
-31.161476663188388
42
-1.0031788792701444
10
138.8117499606299
20
-31.161375125453201
10
150.74825003937013
20
-31.161375125453201
42
-1.0031788792702936
10
150.81174963836514
20
-31.161476663188413
42
-0.41048817713604047
10
155.77989877939513
20
-36.129675287056308
42
-1.0015978180537568
10
155.78000000000003
20
-36.19307512545322
10
155.78000000000003
20
-58.129675125453232
42
-1.0015978180534606
10
155.77989877939518
20
-58.193074963850123
42
-0.41048815845161679
10
150.81174995816772
20
-63.161273585679936
42
-1.0000242487233575
10
150.74825003937011
20
-63.161375125453233
10
138.8117499606299
20
-63.161375125453318
42
-1.0000242487222128
10
138.74825004183231
20
-63.161273585679908
42
-0.41048815845161885
0
LWPOLYLINE
5
102
100
AcDbEntity
8
0
100
AcDbPolyline
90
16
70
1
43
0.0
10
44.131749958167745
20
-63.161273585679787
42
-1.0000242487256468
10
44.068250039370128
20
-63.161375125453219
10
32.131749960629918
20
-63.161375125453098
42
-1.0000242487256468
10
32.068250041832307
20
-63.161273585679893
42
-0.41048523021411981
10
27.100101539773309
20
-58.193125083620941
42
-1.0000242487233575
10
27.100000000000026
20
-58.129625164823324
10
27.100000000000144
20
-36.193125086083093
42
-1.0000242487256468
10
27.100101539773341
20
-36.129625167285496
42
-0.41048524889850285
10
32.068250361634909
20
-31.161476663188381
42
-1.0031788792699952
10
32.131749960629925
20
-31.161375125453183
10
44.068250039370113
20
-31.161375125453191
42
-1.0031788792701619
10
44.131749638365115
20
-31.161476663188388
42
-0.41048233475113843
10
49.099898142094609
20
-36.129575288583069
42
-1.0016028259710505
10
49.100000000000023
20
-36.193175125453209
10
49.100000000000023
20
-58.129575125453215
42
-1.001602825971172
10
49.099898142094609
20
-58.193174962323354
42
-0.41048231606678987
0
LWPOLYLINE
5
103
100
AcDbEntity
8
0
100
AcDbPolyline
90
16
70
1
43
0.0
10
1.7001015397734596
20
-58.193125083620941
42
-1.0000242487256468
10
1.7000000000000173
20
-58.129625164823324
10
1.6999999999999975
20
-36.193125086083093
42
-1.0000242487233575
10
1.7001015397733372
20
-36.129625167285482
42
-0.41048524889850374
10
6.66825036163491
20
-31.161476663188381
42
-1.0031788792701706
10
6.7317499606299203
20
-31.161375125453191
10
18.668250039370118
20
-31.161375125453187
42
-1.0031788792701357
10
18.73174963836513
20
-31.161476663188385
42
-0.41048526758288928
10
23.699898462264834
20
-36.129625487088092
42
-1.0031788792702936
10
23.700000000000014
20
-36.193125086083093
10
23.70000000000001
20
-58.12962516482331
42
-1.0031788792702936
10
23.699898462264841
20
-58.193124763818318
42
-0.41048524889850441
10
18.731749958167732
20
-63.161273585679936
42
-1.0000242487233575
10
18.668250039370122
20
-63.161375125453212
10
6.7317499606299149
20
-63.161375125453254
42
-1.0000242487233575
10
6.6682500418323016
20
-63.161273585679893
42
-0.41048523021411942
0
LWPOLYLINE
5
104
100
AcDbEntity
8
0
100
AcDbPolyline
90
16
70
1
43
0.0
10
125.41174995816773
20
-63.161273585679936
42
-1.0000242487233575
10
125.34825003937013
20
-63.161375125453233
10
113.4117499606299
20
-63.161375125453326
42
-1.0000242487222128
10
113.34825004183232
20
-63.161273585679922
42
-0.41048523021412059
10
108.38010153977334
20
-58.193125083620949
42
-1.0000242487233575
10
108.38000000000002
20
-58.129625164823331
10
108.37999999999992
20
-36.193125086083114
42
-1.0000242487222128
10
108.38010153977335
20
-36.129625167285496
42
-0.41048524889850441
10
113.34825036163491
20
-31.161476663188388
42
-1.0031788792701444
10
113.4117499606299
20
-31.161375125453201
10
125.3482500393701
20
-31.161375125453201
42
-1.0031788792700302
10
125.41174963836511
20
-31.161476663188388
42
-0.41048817713604108
10
130.37989877939512
20
-36.129675287056308
42
-1.0015978180537568
10
130.38000000000002
20
-36.19307512545322
10
130.38000000000002
20
-58.129675125453218
42
-1.0015978180537568
10
130.37989877939515
20
-58.193074963850137
42
-0.41048815845161624
0
LWPOLYLINE
5
105
100
AcDbEntity
8
0
100
AcDbPolyline
90
16
70
1
43
0.0
10
55.040101857905427
20
-58.193174962323361
42
-1.0016028259709118
10
55.040000000000035
20
-58.129575125453236
10
55.040000000000035
20
-36.193175125453209
42
-1.0016028259709118
10
55.040101857905427
20
-36.129575288583084
42
-0.41048233475113788
10
60.008250361634921
20
-31.161476663188388
42
-1.0031788792701619
10
60.071749960629923
20
-31.161375125453201
10
72.008250039370111
20
-31.161375125453191
42
-1.0031788792700302
10
72.071749638365119
20
-31.161476663188385
42
-0.41048526758289067
10
77.03989846226483
20
-36.129625487088106
42
-1.0031788792701619
10
77.04000000000002
20
-36.193125086083107
10
77.04000000000002
20
-58.129625164823338
42
-1.0031788792703022
10
77.03989846226483
20
-58.193124763818325
42
-0.41048524889850463
10
72.071749958167743
20
-63.161273585679929
42
-1.0000242487233575
10
72.008250039370139
20
-63.161375125453219
10
60.071749960629923
20
-63.161375125453318
42
-1.0000242487222128
10
60.008250041832305
20
-63.161273585679893
42
-0.41048231606679142
0
LWPOLYLINE
5
106
100
AcDbEntity
8
0
100
AcDbPolyline
90
16
70
1
43
0.0
10
85.408250361634899
20
-31.161476663188388
42
-1.0031788792701619
10
85.471749960629907
20
-31.161375125453201
10
97.408250039370103
20
-31.161375125453201
42
-1.0031788792700302
10
97.471749638365111
20
-31.161476663188388
42
-0.41048526758289172
10
102.43989846226482
20
-36.129625487088113
42
-1.0031788792708638
10
102.44000000000001
20
-36.193125086083128
10
102.44
20
-58.129625164823338
42
-1.0031788792708638
10
102.43989846226482
20
-58.193124763818346
42
-0.41048524889850363
10
97.47174995816772
20
-63.161273585679808
42
-1.0000242487256468
10
97.408250039370117
20
-63.161375125453219
10
85.471749960629907
20
-63.161375125453326
42
-1.0000242487222128
10
85.408250041832318
20
-63.161273585679908
42
-0.41048231606679086
10
80.440101857905418
20
-58.193174962323361
42
-1.0016028259708945
10
80.440000000000026
20
-58.129575125453215
10
80.440000000000026
20
-36.193175125453216
42
-1.0016028259712066
10
80.440101857905418
20
-36.129575288583069
42
-0.41048233475113555
0
ENDSEC
0
SECTION
2
OBJECTS
0
DICTIONARY
5
C
100
AcDbDictionary
3
ACAD_GROUP
350
D
3
ACAD_MLINESTYLE
350
17
0
DICTIONARY
5
D
100
AcDbDictionary
0
DICTIONARY
5
1A
330
C
100
AcDbDictionary
0
DICTIONARY
5
17
100
AcDbDictionary
0
ENDSEC
0
EOF
