0
SECTION
2
HEADER
9
$INSUNITS
70
4
9
$ACADVER
1
AC1014
9
$HANDSEED
5
FFFF
0
ENDSEC
0
SECTION
2
TABLES
0
TABLE
2
VPORT
5
8
100
AcDbSymbolTable
0
ENDTAB
0
TABLE
2
LTYPE
5
5
100
AcDbSymbolTable
0
LTYPE
5
14
100
AcDbSymbolTableRecord
100
AcDbLinetypeTableRecord
2
BYBLOCK
70
0
0
LTYPE
5
15
100
AcDbSymbolTableRecord
100
AcDbLinetypeTableRecord
2
BYLAYER
70
0
0
ENDTAB
0
TABLE
2
LAYER
5
2
100
AcDbSymbolTable
70
2
0
LAYER
5
50
100
AcDbSymbolTableRecord
100
AcDbLayerTableRecord
2
0
70
0
6
CONTINUOUS
0
ENDTAB
0
TABLE
2
STYLE
5
3
100
AcDbSymbolTable
70
1
0
STYLE
5
11
100
AcDbSymbolTableRecord
100
AcDbTextStyleTableRecord
2
STANDARD
70
0
0
ENDTAB
0
TABLE
2
VIEW
5
6
100
AcDbSymbolTable
70
0
0
ENDTAB
0
TABLE
2
UCS
5
7
100
AcDbSymbolTable
70
0
0
ENDTAB
0
TABLE
2
APPID
5
9
100
AcDbSymbolTable
70
2
0
APPID
5
12
100
AcDbSymbolTableRecord
100
AcDbRegAppTableRecord
2
ACAD
70
0
0
ENDTAB
0
TABLE
2
DIMSTYLE
5
A
100
AcDbSymbolTable
70
1
0
ENDTAB
0
TABLE
2
BLOCK_RECORD
5
1
100
AcDbSymbolTable
70
1
0
BLOCK_RECORD
5
1F
100
AcDbSymbolTableRecord
100
AcDbBlockTableRecord
2
*MODEL_SPACE
0
BLOCK_RECORD
5
1B
100
AcDbSymbolTableRecord
100
AcDbBlockTableRecord
2
*PAPER_SPACE
0
ENDTAB
0
ENDSEC
0
SECTION
2
BLOCKS
0
BLOCK
5
20
100
AcDbEntity
100
AcDbBlockBegin
2
*MODEL_SPACE
0
ENDBLK
5
21
100
AcDbEntity
100
AcDbBlockEnd
0
BLOCK
5
1C
100
AcDbEntity
100
AcDbBlockBegin
2
*PAPER_SPACE
0
ENDBLK
5
1D
100
AcDbEntity
100
AcDbBlockEnd
0
ENDSEC
0
SECTION
2
ENTITIES
0
LWPOLYLINE
5
100
100
AcDbEntity
8
0
100
AcDbPolyline
90
36
70
1
43
0.0
10
10.73137531654762
20
-14.01137512545314
10
10.731375316547654
20
-23.011375125453142
10
7.731375316547652
20
-23.011375125453153
10
7.7313753165478278
20
-71.291375065848555
10
10.73137531654783
20
-71.291375125453186
10
10.731375316547862
20
-80.291375125453186
10
1.7313753165478474
20
-80.291375125453214
10
1.7313753165478363
20
-77.291375211078844
10
-9.9352913501188276
20
-77.291375211078886
10
-9.9352913501188151
20
-80.291375125453271
10
-19.935291350118835
20
-80.291375125453314
10
-19.935291350118842
20
-77.291375211078929
10
-31.60195801678551
20
-77.291375211078957
10
-31.601958016785503
20
-80.291375125453342
10
-41.60195801678551
20
-80.291375125453385
10
-41.601958016785531
20
-77.291375211079
10
-53.268624683452195
20
-77.291375211079043
10
-53.268624683452181
20
-80.291375125453442
10
-62.268624683452181
20
-80.29137512545347
10
-62.268624683452217
20
-71.291375125453428
10
-59.268624683452053
20
-71.291375125453413
10
-59.268624683452387
20
-23.011375125453402
10
-62.268624683452394
20
-23.011375125453412
10
-62.26862468345243
20
-14.011375125453407
10
-53.26862468345243
20
-14.011375125453371
10
-53.268624683452408
20
-17.011375125453405
10
-41.60195801678573
20
-17.011375125453363
10
-41.601958016785751
20
-14.011375125453327
10
-31.601958016785741
20
-14.011375125453291
10
-31.60195801678573
20
-17.011375125453327
10
-19.935291350119055
20
-17.011375125453281
10
-19.935291350119066
20
-14.011375125453247
10
-9.9352913501190585
20
-14.011375125453212
10
-9.9352913501190461
20
-17.011375125453245
10
1.7313753165476253
20
-17.011375125453199
10
1.7313753165476142
20
-14.011375125453167
0
ENDSEC
0
SECTION
2
OBJECTS
0
DICTIONARY
5
C
100
AcDbDictionary
3
ACAD_GROUP
350
D
3
ACAD_MLINESTYLE
350
17
0
DICTIONARY
5
D
100
AcDbDictionary
0
DICTIONARY
5
1A
330
C
100
AcDbDictionary
0
DICTIONARY
5
17
100
AcDbDictionary
0
ENDSEC
0
EOF
