0
SECTION
2
HEADER
9
$INSUNITS
70
4
9
$ACADVER
1
AC1014
9
$HANDSEED
5
FFFF
0
ENDSEC
0
SECTION
2
TABLES
0
TABLE
2
VPORT
5
8
100
AcDbSymbolTable
0
ENDTAB
0
TABLE
2
LTYPE
5
5
100
AcDbSymbolTable
0
LTYPE
5
14
100
AcDbSymbolTableRecord
100
AcDbLinetypeTableRecord
2
BYBLOCK
70
0
0
LTYPE
5
15
100
AcDbSymbolTableRecord
100
AcDbLinetypeTableRecord
2
BYLAYER
70
0
0
ENDTAB
0
TABLE
2
LAYER
5
2
100
AcDbSymbolTable
70
2
0
LAYER
5
50
100
AcDbSymbolTableRecord
100
AcDbLayerTableRecord
2
0
70
0
6
CONTINUOUS
0
ENDTAB
0
TABLE
2
STYLE
5
3
100
AcDbSymbolTable
70
1
0
STYLE
5
11
100
AcDbSymbolTableRecord
100
AcDbTextStyleTableRecord
2
STANDARD
70
0
0
ENDTAB
0
TABLE
2
VIEW
5
6
100
AcDbSymbolTable
70
0
0
ENDTAB
0
TABLE
2
UCS
5
7
100
AcDbSymbolTable
70
0
0
ENDTAB
0
TABLE
2
APPID
5
9
100
AcDbSymbolTable
70
2
0
APPID
5
12
100
AcDbSymbolTableRecord
100
AcDbRegAppTableRecord
2
ACAD
70
0
0
ENDTAB
0
TABLE
2
DIMSTYLE
5
A
100
AcDbSymbolTable
70
1
0
ENDTAB
0
TABLE
2
BLOCK_RECORD
5
1
100
AcDbSymbolTable
70
1
0
BLOCK_RECORD
5
1F
100
AcDbSymbolTableRecord
100
AcDbBlockTableRecord
2
*MODEL_SPACE
0
BLOCK_RECORD
5
1B
100
AcDbSymbolTableRecord
100
AcDbBlockTableRecord
2
*PAPER_SPACE
0
ENDTAB
0
ENDSEC
0
SECTION
2
BLOCKS
0
BLOCK
5
20
100
AcDbEntity
100
AcDbBlockBegin
2
*MODEL_SPACE
0
ENDBLK
5
21
100
AcDbEntity
100
AcDbBlockEnd
0
BLOCK
5
1C
100
AcDbEntity
100
AcDbBlockBegin
2
*PAPER_SPACE
0
ENDBLK
5
1D
100
AcDbEntity
100
AcDbBlockEnd
0
ENDSEC
0
SECTION
2
ENTITIES
0
LWPOLYLINE
5
100
100
AcDbEntity
8
0
100
AcDbPolyline
90
36
70
1
43
0.0
10
157.46000000000004
20
10.731375316547584
10
167.46000000000006
20
10.731375316547584
10
167.46000000000006
20
1.7313753165475776
10
170.46000000000004
20
1.7313753165475787
10
170.46000000000004
20
-9.9352913501190958
10
167.46000000000006
20
-9.9352913501190958
10
167.46000000000006
20
-19.935291350119101
10
170.46000000000004
20
-19.935291350119101
10
170.46000000000004
20
-31.601958016785776
10
167.46000000000006
20
-31.601958016785776
10
167.46000000000006
20
-41.601958016785773
10
170.46000000000004
20
-41.601958016785773
10
170.46000000000004
20
-53.268624683452458
10
167.46000000000006
20
-53.268624683452458
10
167.46000000000006
20
-62.268624683452387
10
157.46000000000004
20
-62.268624683452401
10
157.46000000000004
20
-59.268624683452401
10
2.7786719020755067e-14
20
-59.268624683452401
10
2.7755575615628914e-14
20
-62.268624683452401
10
-9.9999999999999716
20
-62.268624683452401
10
-9.9999999999999716
20
-53.268624683452472
10
-12.999999999999972
20
-53.268624683452472
10
-12.999999999999972
20
-41.601958016785794
10
-9.9999999999999734
20
-41.601958016785794
10
-9.9999999999999751
20
-31.60195801678579
10
-12.999999999999973
20
-31.60195801678579
10
-12.999999999999973
20
-19.935291350119115
10
-9.9999999999999751
20
-19.935291350119115
10
-9.9999999999999769
20
-9.9352913501191082
10
-12.999999999999973
20
-9.9352913501191082
10
-12.999999999999975
20
1.731375316547562
10
-9.9999999999999787
20
1.7313753165475632
10
-9.9999999999999787
20
10.731375316547568
10
2.1958048141472999e-14
20
10.73137531654757
10
1.7763568394002505e-14
20
7.7313753165475676
10
157.46000000000004
20
7.7313753165475809
0
ENDSEC
0
SECTION
2
OBJECTS
0
DICTIONARY
5
C
100
AcDbDictionary
3
ACAD_GROUP
350
D
3
ACAD_MLINESTYLE
350
17
0
DICTIONARY
5
D
100
AcDbDictionary
0
DICTIONARY
5
1A
330
C
100
AcDbDictionary
0
DICTIONARY
5
17
100
AcDbDictionary
0
ENDSEC
0
EOF
