0
SECTION
2
HEADER
9
$INSUNITS
70
4
9
$ACADVER
1
AC1014
9
$HANDSEED
5
FFFF
0
ENDSEC
0
SECTION
2
TABLES
0
TABLE
2
VPORT
5
8
100
AcDbSymbolTable
0
ENDTAB
0
TABLE
2
LTYPE
5
5
100
AcDbSymbolTable
0
LTYPE
5
14
100
AcDbSymbolTableRecord
100
AcDbLinetypeTableRecord
2
BYBLOCK
70
0
0
LTYPE
5
15
100
AcDbSymbolTableRecord
100
AcDbLinetypeTableRecord
2
BYLAYER
70
0
0
ENDTAB
0
TABLE
2
LAYER
5
2
100
AcDbSymbolTable
70
2
0
LAYER
5
50
100
AcDbSymbolTableRecord
100
AcDbLayerTableRecord
2
0
70
0
6
CONTINUOUS
0
ENDTAB
0
TABLE
2
STYLE
5
3
100
AcDbSymbolTable
70
1
0
STYLE
5
11
100
AcDbSymbolTableRecord
100
AcDbTextStyleTableRecord
2
STANDARD
70
0
0
ENDTAB
0
TABLE
2
VIEW
5
6
100
AcDbSymbolTable
70
0
0
ENDTAB
0
TABLE
2
UCS
5
7
100
AcDbSymbolTable
70
0
0
ENDTAB
0
TABLE
2
APPID
5
9
100
AcDbSymbolTable
70
2
0
APPID
5
12
100
AcDbSymbolTableRecord
100
AcDbRegAppTableRecord
2
ACAD
70
0
0
ENDTAB
0
TABLE
2
DIMSTYLE
5
A
100
AcDbSymbolTable
70
1
0
ENDTAB
0
TABLE
2
BLOCK_RECORD
5
1
100
AcDbSymbolTable
70
1
0
BLOCK_RECORD
5
1F
100
AcDbSymbolTableRecord
100
AcDbBlockTableRecord
2
*MODEL_SPACE
0
BLOCK_RECORD
5
1B
100
AcDbSymbolTableRecord
100
AcDbBlockTableRecord
2
*PAPER_SPACE
0
ENDTAB
0
ENDSEC
0
SECTION
2
BLOCKS
0
BLOCK
5
20
100
AcDbEntity
100
AcDbBlockBegin
2
*MODEL_SPACE
0
ENDBLK
5
21
100
AcDbEntity
100
AcDbBlockEnd
0
BLOCK
5
1C
100
AcDbEntity
100
AcDbBlockBegin
2
*PAPER_SPACE
0
ENDBLK
5
1D
100
AcDbEntity
100
AcDbBlockEnd
0
ENDSEC
0
SECTION
2
ENTITIES
0
LWPOLYLINE
5
100
100
AcDbEntity
8
0
100
AcDbPolyline
90
8
70
1
43
0.0
10
134.78000000000006
20
-37.161375125453176
10
134.78000000000006
20
-57.161375125453198
42
0.41421356237309553
10
139.78000000000006
20
-62.161375125453226
10
149.78000000000009
20
-62.161375125453219
42
0.41421356237309503
10
154.78000000000006
20
-57.161375125453205
10
154.78000000000006
20
-37.161375125453183
42
0.41421356237309503
10
149.78000000000006
20
-32.161375125453176
10
139.78000000000006
20
-32.161375125453169
42
0.41421356237309503
0
LWPOLYLINE
5
101
100
AcDbEntity
8
0
100
AcDbPolyline
90
8
70
1
43
0.0
10
109.38000000000004
20
-37.161375125453176
10
109.38000000000004
20
-57.161375125453198
42
0.41421356237309503
10
114.38000000000004
20
-62.161375125453219
10
124.38000000000005
20
-62.161375125453205
42
0.41421356237309503
10
129.38000000000005
20
-57.161375125453205
10
129.38000000000008
20
-37.161375125453176
42
0.41421356237309503
10
124.38000000000008
20
-32.161375125453169
10
114.38000000000004
20
-32.161375125453176
42
0.41421356237309476
0
LWPOLYLINE
5
102
100
AcDbEntity
8
0
100
AcDbPolyline
90
8
70
1
43
0.0
10
81.44000000000004
20
-37.161375125453176
10
81.44000000000004
20
-57.161375125453198
42
0.41421356237309503
10
86.44000000000004
20
-62.161375125453219
10
96.440000000000055
20
-62.161375125453205
42
0.41421356237309503
10
101.44000000000003
20
-57.161375125453198
10
101.44000000000005
20
-37.161375125453176
42
0.41421356237309503
10
96.440000000000055
20
-32.161375125453169
10
86.44000000000004
20
-32.161375125453169
42
0.41421356237309503
0
LWPOLYLINE
5
103
100
AcDbEntity
8
0
100
AcDbPolyline
90
8
70
1
43
0.0
10
56.040000000000049
20
-37.161375125453169
10
56.040000000000035
20
-57.161375125453198
42
0.41421356237309503
10
61.040000000000049
20
-62.161375125453219
10
71.040000000000049
20
-62.161375125453198
42
0.41421356237309503
10
76.040000000000049
20
-57.161375125453198
10
76.040000000000049
20
-37.161375125453169
42
0.41421356237309503
10
71.040000000000049
20
-32.161375125453162
10
61.040000000000056
20
-32.161375125453169
42
0.41421356237309503
0
LWPOLYLINE
5
104
100
AcDbEntity
8
0
100
AcDbPolyline
90
8
70
1
43
0.0
10
28.10000000000003
20
-37.161375125453169
10
28.100000000000026
20
-57.161375125453191
42
0.41421356237309503
10
33.10000000000003
20
-62.161375125453226
10
43.10000000000003
20
-62.161375125453198
42
0.41421356237309503
10
48.10000000000003
20
-57.161375125453198
10
48.100000000000037
20
-37.161375125453169
42
0.41421356237309531
10
43.100000000000037
20
-32.161375125453155
10
33.100000000000037
20
-32.161375125453162
42
0.41421356237309503
0
LWPOLYLINE
5
105
100
AcDbEntity
8
0
100
AcDbPolyline
90
8
70
1
43
0.0
10
2.7000000000000179
20
-37.161375125453155
10
2.7000000000000157
20
-57.161375125453176
42
0.41421356237309492
10
7.7000000000000206
20
-62.161375125453226
10
17.700000000000024
20
-62.161375125453191
42
0.41421356237309503
10
22.700000000000017
20
-57.161375125453176
10
22.700000000000028
20
-37.161375125453169
42
0.41421356237309503
10
17.700000000000028
20
-32.161375125453155
10
7.7000000000000206
20
-32.161375125453155
42
0.41421356237309481
0
LWPOLYLINE
5
106
100
AcDbEntity
8
0
100
AcDbPolyline
90
4
70
1
43
0.0
10
172.46000000000004
20
-12.011375125453156
10
172.46000000000004
20
-82.291375125453229
10
-14.99999999999995
20
-82.291375125453214
10
-14.999999999999964
20
-12.011375125453139
0
ENDSEC
0
SECTION
2
OBJECTS
0
DICTIONARY
5
C
100
AcDbDictionary
3
ACAD_GROUP
350
D
3
ACAD_MLINESTYLE
350
17
0
DICTIONARY
5
D
100
AcDbDictionary
0
DICTIONARY
5
1A
330
C
100
AcDbDictionary
0
DICTIONARY
5
17
100
AcDbDictionary
0
ENDSEC
0
EOF
