0
SECTION
2
HEADER
9
$INSUNITS
70
4
9
$ACADVER
1
AC1014
9
$HANDSEED
5
FFFF
0
ENDSEC
0
SECTION
2
TABLES
0
TABLE
2
VPORT
5
8
100
AcDbSymbolTable
0
ENDTAB
0
TABLE
2
LTYPE
5
5
100
AcDbSymbolTable
0
LTYPE
5
14
100
AcDbSymbolTableRecord
100
AcDbLinetypeTableRecord
2
BYBLOCK
70
0
0
LTYPE
5
15
100
AcDbSymbolTableRecord
100
AcDbLinetypeTableRecord
2
BYLAYER
70
0
0
ENDTAB
0
TABLE
2
LAYER
5
2
100
AcDbSymbolTable
70
2
0
LAYER
5
50
100
AcDbSymbolTableRecord
100
AcDbLayerTableRecord
2
0
70
0
6
CONTINUOUS
0
ENDTAB
0
TABLE
2
STYLE
5
3
100
AcDbSymbolTable
70
1
0
STYLE
5
11
100
AcDbSymbolTableRecord
100
AcDbTextStyleTableRecord
2
STANDARD
70
0
0
ENDTAB
0
TABLE
2
VIEW
5
6
100
AcDbSymbolTable
70
0
0
ENDTAB
0
TABLE
2
UCS
5
7
100
AcDbSymbolTable
70
0
0
ENDTAB
0
TABLE
2
APPID
5
9
100
AcDbSymbolTable
70
2
0
APPID
5
12
100
AcDbSymbolTableRecord
100
AcDbRegAppTableRecord
2
ACAD
70
0
0
ENDTAB
0
TABLE
2
DIMSTYLE
5
A
100
AcDbSymbolTable
70
1
0
ENDTAB
0
TABLE
2
BLOCK_RECORD
5
1
100
AcDbSymbolTable
70
1
0
BLOCK_RECORD
5
1F
100
AcDbSymbolTableRecord
100
AcDbBlockTableRecord
2
*MODEL_SPACE
0
BLOCK_RECORD
5
1B
100
AcDbSymbolTableRecord
100
AcDbBlockTableRecord
2
*PAPER_SPACE
0
ENDTAB
0
ENDSEC
0
SECTION
2
BLOCKS
0
BLOCK
5
20
100
AcDbEntity
100
AcDbBlockBegin
2
*MODEL_SPACE
0
ENDBLK
5
21
100
AcDbEntity
100
AcDbBlockEnd
0
BLOCK
5
1C
100
AcDbEntity
100
AcDbBlockBegin
2
*PAPER_SPACE
0
ENDBLK
5
1D
100
AcDbEntity
100
AcDbBlockEnd
0
ENDSEC
0
SECTION
2
ENTITIES
0
LWPOLYLINE
5
100
100
AcDbEntity
8
0
100
AcDbPolyline
90
20
70
1
43
0.0
10
165.45999999999998
20
-4.7008399479247354
10
162.45999999999998
20
-4.7008399479247398
10
162.46000000000004
20
-10.700839947924731
10
165.46000000000004
20
-10.700839947924731
10
165.46000000000006
20
-32.700839947924912
10
137.46000000000004
20
-32.700839947924919
10
137.46000000000006
20
-34.700839947924905
10
20.000000000000028
20
-34.700839947924926
10
20.000000000000018
20
-32.700839947924926
10
-7.9999999999999822
20
-32.700839947924933
10
-8.0000000000000675
20
-10.700839947924699
10
-4.9400000000000279
20
-10.700839947924708
10
-4.9400000000000519
20
-4.7008399479247114
10
-8.0000000000000924
20
-4.7008399479247043
10
-8.0000000000002007
20
28.599160052074932
42
-0.41421356237309392
10
-3.0000000000002558
20
33.599160052074907
10
160.45999999999981
20
33.59916005207495
42
-0.41421356237309503
10
165.45999999999981
20
28.59916005207495
10
165.45999710082984
20
4.6633257642030479
10
165.45999999999995
20
-1.3366742357969397
0
LWPOLYLINE
5
101
100
AcDbEntity
8
0
100
AcDbPolyline
90
16
70
1
43
0.0
10
138.74825036163469
20
16.449058514339807
42
-1.0031788792698637
10
138.8117499606297
20
16.44916005207498
10
150.74825003936996
20
16.449160052074969
42
-1.0031788792704339
10
150.81174963836497
20
16.449058514339793
42
-0.41048817713604124
10
155.77989877939495
20
11.480859890471892
42
-1.0015978180537568
10
155.77999999999986
20
11.417460052074983
10
155.77999999999994
20
-10.519139947924948
42
-1.0015978180534606
10
155.77989877939507
20
-10.582539786321856
42
-0.41048815845161585
10
150.81174995816764
20
-15.550738408151652
42
-1.0000242487233575
10
150.74825003937005
20
-15.550839947924951
10
138.81174996062984
20
-15.55083994792497
42
-1.0000242487233575
10
138.74825004183225
20
-15.550738408151648
42
-0.41048815845161835
10
133.78010122060482
20
-10.582539786321835
42
-1.0015978180531646
10
133.77999999999992
20
-10.519139947924961
10
133.77999999999983
20
11.417460052075008
42
-1.0015978180531646
10
133.78010122060471
20
11.480859890471875
42
-0.41048817713603797
0
LWPOLYLINE
5
102
100
AcDbEntity
8
0
100
AcDbPolyline
90
16
70
1
43
0.0
10
97.471749958167649
20
-15.550738408151663
42
-1.0000242487233575
10
97.408250039370046
20
-15.550839947924956
10
85.471749960629836
20
-15.550839947924974
42
-1.0000242487233575
10
85.408250041832247
20
-15.550738408151666
42
-0.41048231606679203
10
80.440101857905333
20
-10.582639784795107
42
-1.0016028259708945
10
80.439999999999941
20
-10.519039947924966
10
80.439999999999841
20
11.417360052074974
42
-1.001602825971172
10
80.440101857905262
20
11.480959888945117
42
-0.41048233475113555
10
85.4082503616347
20
16.449058514339782
42
-1.0031788792701444
10
85.471749960629708
20
16.449160052074969
10
97.408250039369904
20
16.449160052074966
42
-1.0031788792700302
10
97.471749638364912
20
16.449058514339821
42
-0.4104852675828925
10
102.43989846226467
20
11.480909690440075
42
-1.0031788792705743
10
102.43999999999984
20
11.41741009144507
10
102.43999999999993
20
-10.519089987295079
42
-1.0031788792705829
10
102.43989846226471
20
-10.582589586290091
42
-0.41048524889850246
0
LWPOLYLINE
5
103
100
AcDbEntity
8
0
100
AcDbPolyline
90
16
70
1
43
0.0
10
108.38010153977316
20
-10.582589906092696
42
-1.0000242487222128
10
108.37999999999994
20
-10.519089987295073
10
108.37999999999981
20
11.417410091445072
42
-1.0000242487233575
10
108.38010153977321
20
11.480910010242695
42
-0.41048524889850335
10
113.34825036163471
20
16.449058514339782
42
-1.0031788792701444
10
113.41174996062972
20
16.449160052074969
10
125.3482500393699
20
16.449160052074987
42
-1.003178879269881
10
125.41174963836491
20
16.449058514339804
42
-0.41048817713604202
10
130.37989877939495
20
11.480859890471883
42
-1.0015978180537568
10
130.37999999999985
20
11.417460052074976
10
130.37999999999994
20
-10.519139947924955
42
-1.0015978180537568
10
130.37989877939503
20
-10.582539786321863
42
-0.41048815845161574
10
125.41174995816766
20
-15.550738408151659
42
-1.0000242487233575
10
125.34825003937004
20
-15.550839947924953
10
113.41174996062983
20
-15.55083994792497
42
-1.0000242487233575
10
113.34825004183224
20
-15.550738408151677
42
-0.41048523021412037
0
LWPOLYLINE
5
104
100
AcDbEntity
8
0
100
AcDbPolyline
90
16
70
1
43
0.0
10
55.040101857905334
20
-10.582639784795107
42
-1.001602825970634
10
55.039999999999935
20
-10.519039947924984
10
55.039999999999864
20
11.417360052074974
42
-1.0016028259709118
10
55.04010185790527
20
11.480959888945099
42
-0.4104823347511361
10
60.008250361634722
20
16.449058514339782
42
-1.0031788792701444
10
60.071749960629731
20
16.449160052074969
10
72.008250039369926
20
16.449160052074966
42
-1.0031788792701619
10
72.071749638364921
20
16.449058514339796
42
-0.41048526758289172
10
77.039898462264659
20
11.480909690440072
42
-1.0031788792701444
10
77.03999999999985
20
11.417410091445085
10
77.039999999999935
20
-10.519089987295079
42
-1.0031788792703022
10
77.039898462264745
20
-10.582589586290077
42
-0.41048524889850335
10
72.071749958167686
20
-15.550738408151519
42
-1.0000242487256468
10
72.008250039370068
20
-15.550839947924961
10
60.071749960629852
20
-15.550839947924988
42
-1.0000242487233575
10
60.008250041832241
20
-15.550738408151659
42
-0.41048231606679231
0
LWPOLYLINE
5
105
100
AcDbEntity
8
0
100
AcDbPolyline
90
16
70
1
43
0.0
10
44.131749958167674
20
-15.550738408151666
42
-1.0000242487233575
10
44.068250039370056
20
-15.550839947924963
10
32.131749960629847
20
-15.550839947924848
42
-1.0000242487256468
10
32.068250041832236
20
-15.550738408151656
42
-0.41048523021412076
10
27.100101539773235
20
-10.582589906092689
42
-1.0000242487233575
10
27.099999999999934
20
-10.519089987295086
10
27.099999999999966
20
11.417410091445079
42
-1.0000242487256468
10
27.100101539773188
20
11.480910010242686
42
-0.41048524889850208
10
32.068250361634718
20
16.449058514339768
42
-1.0031788792701619
10
32.131749960629726
20
16.449160052074959
10
44.068250039369914
20
16.449160052074966
42
-1.0031788792701619
10
44.131749638364923
20
16.449058514339789
42
-0.41048233475113971
10
49.099898142094446
20
11.48095988894511
42
-1.0016028259710159
10
49.099999999999852
20
11.417360052074969
10
49.09999999999993
20
-10.519039947924973
42
-1.0016028259710159
10
49.099898142094531
20
-10.582639784795111
42
-0.4104823160667887
0
LWPOLYLINE
5
106
100
AcDbEntity
8
0
100
AcDbPolyline
90
16
70
1
43
0.0
10
1.7001015397732269
20
-10.582589906092698
42
-1.0000242487233575
10
1.6999999999999318
20
-10.519089987295086
10
1.6999999999998183
20
11.417410091445072
42
-1.0000242487233575
10
1.7001015397731805
20
11.480910010242686
42
-0.41048524889850269
10
6.6682503616347155
20
16.449058514339772
42
-1.0031788792700127
10
6.7317499606297293
20
16.449160052074969
10
18.668250039369919
20
16.449160052074959
42
-1.0031788792700127
10
18.731749638364935
20
16.449058514339779
42
-0.41048526758289017
10
23.699898462264649
20
11.480909690440079
42
-1.0031788792702496
10
23.699999999999847
20
11.417410091445085
10
23.699999999999921
20
-10.519089987295073
42
-1.0031788792703724
10
23.699898462264734
20
-10.58258958629008
42
-0.41048524889850385
10
18.731749958167665
20
-15.550738408151672
42
-1.0000242487233575
10
18.668250039370054
20
-15.550839947924967
10
6.7317499606298483
20
-15.550839947924853
42
-1.0000242487256468
10
6.6682500418322359
20
-15.550738408151659
42
-0.41048523021412076
0
CIRCLE
5
107
100
AcDbEntity
8
0
100
AcDbCircle
10
154.93999999999977
20
28.389160052074949
30
2.7311486405778851e-13
40
1.5499999999999936
210
-1.2939908320950124e-31
220
-5.5511151231257691e-17
230
1
0
CIRCLE
5
108
100
AcDbEntity
8
0
100
AcDbCircle
10
2.5399999999999729
20
-21.140839947924952
30
-1.8540724511240114e-13
40
1.5500000000000003
210
-1.2939908320950124e-31
220
-5.5511151231257691e-17
230
1
0
CIRCLE
5
109
100
AcDbEntity
8
0
100
AcDbCircle
10
154.93999999999997
20
-21.140839947924938
30
-3.2807090377673376e-13
40
1.5499999999999936
210
-1.2939908320950124e-31
220
-5.5511151231257691e-17
230
1
0
CIRCLE
5
110
100
AcDbEntity
8
0
100
AcDbCircle
10
2.5399999999997802
20
28.389160052074935
30
4.1577852272212112e-13
40
1.5500000000000003
210
-1.2939908320950124e-31
220
-5.5511151231257691e-17
230
1
0
ENDSEC
0
SECTION
2
OBJECTS
0
DICTIONARY
5
C
100
AcDbDictionary
3
ACAD_GROUP
350
D
3
ACAD_MLINESTYLE
350
17
0
DICTIONARY
5
D
100
AcDbDictionary
0
DICTIONARY
5
1A
330
C
100
AcDbDictionary
0
DICTIONARY
5
17
100
AcDbDictionary
0
ENDSEC
0
EOF
